<svg width="100%" height="100%" viewBox="0 0 24 24" fill="none" xmlns="http://www.w3.org/2000/svg">
  <defs>
    <linearGradient id="grad1" x1="0%" y1="0%" x2="100%" y2="100%">
      <stop offset="0%" style="stop-color:rgb(255,219,110);stop-opacity:1" />
      <stop offset="100%" style="stop-color:rgb(255,188,94);stop-opacity:1" />
    </linearGradient>
  </defs>
  <path d="M21 2L20 3" stroke="url(#grad1)" stroke-width="1.5" stroke-linecap="round" stroke-linejoin="round"/>
    <path d="M3 2L4 3" stroke="url(#grad1)" stroke-width="1.5" stroke-linecap="round" stroke-linejoin="round"/>
    <path d="M21 16L20 15" stroke="url(#grad1)" stroke-width="1.5" stroke-linecap="round" stroke-linejoin="round"/>
    <path d="M3 16L4 15" stroke="url(#grad1)" stroke-width="1.5" stroke-linecap="round" stroke-linejoin="round"/>
    <path d="M9 18H15" stroke="rgb(255,219,110)" stroke-width="1.5" stroke-linecap="round" stroke-linejoin="round"/>
    <path d="M10 21H14" stroke="rgb(255,219,110)" stroke-width="1.5" stroke-linecap="round" stroke-linejoin="round"/>
    <!-- <path d="M9 18H15" stroke="url(#grad1)" stroke-width="1.5" stroke-linecap="round" stroke-linejoin="round"/>
    <path d="M10 21H14" stroke="url(#grad1)" stroke-width="1.5" stroke-linecap="round" stroke-linejoin="round"/> -->
  
    <path d="M11.9998 3C7.9997 3 5.95186 4.95029 5.99985 8C6.02324 9.48689 6.4997 10.5 7.49985 11.5C8.5 12.5 9 13 8.99985 15H14.9998C15 13.0001 15.5 12.5 16.4997 11.5001L16.4998 11.5C17.4997 10.5 17.9765 9.48689 17.9998 8C18.0478 4.95029 16 3 11.9998 3Z" stroke="url(#grad1)" stroke-width="1.5" stroke-linecap="round" stroke-linejoin="round"/>
</svg>
